<?xml version="1.0" standalone="no"?>
<!DOCTYPE svg PUBLIC "-//W3C//DTD SVG 20010904//EN"
 "http://www.w3.org/TR/2001/REC-SVG-20010904/DTD/svg10.dtd">
<svg version="1.0" xmlns="http://www.w3.org/2000/svg"
 width="1577.000000pt" height="1584.000000pt" viewBox="0 0 1577.000000 1584.000000"
 preserveAspectRatio="xMidYMid meet">

<g transform="translate(0.000000,1584.000000) scale(0.100000,-0.100000)"
fill="#000000" stroke="none">
<path d="M7210 15800 c0 -5 -9 -10 -20 -10 -29 0 -88 -41 -100 -70 -10 -24 -9
-98 2 -116 3 -5 9 -25 13 -44 4 -19 11 -39 15 -45 4 -5 8 -17 9 -25 7 -70 16
-106 28 -115 7 -5 16 -26 18 -45 3 -19 8 -55 11 -80 3 -25 11 -49 18 -55 7 -5
15 -28 19 -50 3 -22 13 -83 22 -135 11 -59 15 -123 12 -170 -5 -84 -34 -217
-52 -240 -7 -8 -15 -31 -19 -51 -4 -21 -14 -43 -22 -50 -17 -14 -39 -58 -35
-73 1 -5 -4 -16 -11 -25 -21 -26 -38 -60 -38 -75 0 -8 -7 -16 -15 -20 -8 -3
-15 -15 -15 -26 0 -11 -4 -20 -9 -20 -11 0 -41 -57 -41 -77 0 -7 -7 -16 -15
-19 -8 -3 -19 -22 -26 -41 -6 -20 -22 -51 -35 -71 -13 -19 -24 -39 -24 -45 0
-6 -6 -18 -14 -26 -20 -24 -119 -244 -118 -264 1 -10 -6 -21 -14 -24 -8 -3
-14 -16 -14 -29 0 -22 -6 -39 -36 -110 -7 -17 -15 -54 -18 -83 -3 -29 -9 -58
-14 -64 -19 -23 -42 -249 -42 -405 0 -153 19 -312 42 -355 5 -10 11 -34 13
-52 1 -18 15 -53 29 -77 14 -25 26 -51 27 -59 0 -8 13 -34 29 -59 16 -25 36
-59 45 -77 20 -38 123 -143 141 -143 7 0 25 -11 41 -24 15 -13 38 -26 51 -30
12 -4 22 -12 22 -17 0 -5 10 -9 23 -9 12 0 31 -7 41 -15 15 -11 49 -15 134
-15 113 0 114 0 156 32 91 71 110 96 114 158 3 44 -1 68 -18 106 -12 27 -23
56 -24 64 -1 8 -11 36 -23 61 -27 60 -39 99 -53 174 -7 33 -17 69 -23 80 -18
32 -25 350 -10 410 49 190 64 240 76 254 7 9 19 30 26 46 7 17 17 37 22 45 5
8 12 23 15 33 4 9 10 17 14 17 5 0 11 13 15 30 4 16 10 32 15 35 4 3 27 40 51
83 23 42 45 79 48 82 4 3 15 24 25 48 11 23 23 42 28 42 5 0 7 4 3 10 -3 5 8
28 25 51 16 23 30 49 30 58 0 9 14 36 30 60 17 24 30 51 30 61 0 9 11 40 25
68 14 29 25 59 25 67 0 8 5 15 10 15 6 0 10 10 10 23 0 12 10 47 21 77 40 103
51 254 39 554 -6 148 -15 277 -21 288 -6 11 -8 25 -6 32 3 6 -1 20 -9 30 -7
10 -16 39 -19 65 -6 44 -21 82 -48 126 -6 11 -27 43 -45 73 -52 85 -175 196
-276 250 -59 31 -62 32 -198 32 -85 0 -138 -4 -138 -10z"/>
<path d="M5587 15563 c-5 -4 -36 -15 -69 -23 -78 -19 -100 -46 -100 -121 0
-30 2 -61 5 -69 3 -8 10 -42 17 -75 7 -33 19 -73 27 -88 8 -16 13 -38 12 -50
-2 -12 6 -47 17 -77 16 -47 19 -82 19 -236 0 -114 -4 -186 -11 -195 -6 -8 -19
-36 -29 -64 -10 -27 -24 -59 -32 -70 -7 -11 -13 -25 -13 -32 0 -7 -13 -35 -30
-61 -16 -27 -30 -56 -30 -64 0 -9 -6 -21 -14 -27 -8 -7 -22 -26 -31 -44 -9
-18 -27 -50 -39 -72 -13 -22 -41 -71 -61 -110 -21 -38 -43 -77 -50 -85 -7 -8
-15 -27 -19 -42 -3 -15 -16 -36 -27 -47 -12 -11 -18 -24 -15 -29 3 -5 -5 -35
-19 -66 -14 -31 -25 -68 -25 -82 0 -14 -8 -39 -17 -57 -16 -28 -18 -63 -18
-293 0 -183 3 -265 12 -275 6 -8 16 -39 21 -69 6 -30 20 -76 31 -102 11 -27
18 -48 14 -48 -3 0 1 -8 9 -17 8 -10 22 -35 31 -55 15 -31 61 -88 108 -133 5
-5 20 -20 31 -32 12 -13 27 -23 34 -23 6 0 17 -7 24 -15 7 -8 38 -22 69 -31
31 -9 75 -22 99 -30 23 -8 80 -14 126 -14 75 0 87 3 128 30 53 35 84 94 74
137 -4 15 -10 42 -13 58 -3 17 -12 39 -19 50 -8 11 -14 30 -14 43 0 13 -9 42
-20 66 -10 24 -24 74 -30 112 -6 37 -16 74 -22 81 -5 7 -7 20 -4 29 4 9 1 23
-6 32 -9 11 -13 61 -13 177 0 138 3 166 17 181 9 11 20 33 24 49 7 30 52 118
86 167 10 14 18 31 18 37 0 12 57 98 71 106 5 4 9 13 9 21 0 9 11 30 25 48 14
18 25 40 25 48 0 9 6 21 13 27 8 6 22 35 32 66 11 30 22 55 26 55 3 0 9 19 13
42 4 23 14 50 22 59 8 9 20 43 27 76 7 33 17 66 23 74 31 40 49 335 32 534
-11 136 -20 184 -33 189 -8 3 -17 30 -20 60 -4 31 -11 56 -15 56 -4 0 -15 19
-26 43 -23 51 -119 150 -194 199 -75 50 -268 97 -293 71z"/>
<path d="M9030 15560 c-8 -5 -39 -15 -69 -21 -75 -15 -101 -45 -101 -116 0
-55 14 -132 31 -168 5 -11 14 -42 19 -70 13 -72 35 -157 46 -180 5 -11 9 -90
9 -175 0 -129 -3 -163 -19 -205 -11 -27 -23 -54 -28 -60 -4 -5 -8 -17 -8 -27
0 -10 -11 -36 -25 -58 -14 -22 -25 -46 -25 -53 0 -7 -18 -41 -40 -75 -22 -33
-40 -68 -40 -77 0 -8 -4 -15 -9 -15 -5 0 -23 -27 -41 -61 -48 -92 -70 -131
-91 -158 -11 -13 -19 -32 -19 -42 0 -11 -3 -19 -8 -19 -9 0 -42 -74 -42 -94 0
-8 -3 -16 -7 -18 -15 -6 -61 -163 -73 -243 -6 -44 -16 -89 -21 -100 -13 -27
-6 -263 10 -335 7 -30 16 -81 21 -113 5 -32 18 -76 29 -98 12 -22 21 -51 21
-64 0 -14 5 -25 10 -25 6 0 10 -4 10 -9 0 -17 83 -153 96 -158 8 -3 14 -9 14
-15 0 -10 43 -48 93 -82 18 -12 68 -35 112 -51 70 -25 94 -29 190 -30 l110 0
42 35 c55 46 70 95 53 176 -6 33 -18 69 -27 82 -8 13 -23 55 -34 95 -10 40
-22 81 -25 92 -4 11 -11 55 -17 98 -5 42 -13 77 -17 77 -10 0 -11 282 -1 294
5 6 11 28 15 49 8 42 75 177 88 177 4 0 8 8 8 18 0 10 13 36 30 58 16 21 30
44 30 51 0 6 4 13 9 15 4 2 27 38 50 81 22 43 48 88 56 100 8 12 15 29 15 38
0 9 9 28 20 41 10 14 17 28 13 31 -3 4 6 30 20 59 14 29 29 73 33 98 3 25 13
50 20 56 8 7 19 47 25 95 5 45 14 89 18 97 5 8 6 23 4 32 -3 10 0 21 6 24 7 5
11 58 11 152 0 119 -3 146 -15 150 -10 4 -12 11 -6 22 5 9 5 25 0 36 -4 12
-13 60 -19 108 -7 52 -17 89 -25 91 -7 3 -16 26 -19 51 -5 30 -20 63 -43 94
-49 65 -145 162 -160 162 -7 0 -21 8 -31 18 -18 18 -111 52 -143 52 -10 0 -21
5 -24 10 -8 13 -95 13 -115 0z"/>
<path d="M1850 11359 c0 -152 2 -173 18 -185 9 -7 27 -14 39 -14 12 0 44 -7
70 -15 67 -21 130 -39 318 -90 28 -7 86 -21 130 -30 44 -10 95 -23 113 -31 18
-8 41 -14 51 -14 10 0 34 -6 52 -14 19 -7 57 -16 85 -20 44 -5 52 -4 56 11 2
10 2 143 0 296 l-4 277 -464 0 -464 0 0 -171z"/>
<path d="M2867 11524 c-4 -4 -7 -137 -7 -296 1 -325 0 -321 77 -333 21 -3 52
-10 68 -15 17 -5 48 -12 70 -15 22 -4 49 -10 60 -15 11 -5 49 -14 85 -20 36
-6 88 -15 117 -19 28 -5 66 -14 85 -20 18 -6 59 -13 90 -16 32 -4 60 -11 63
-16 4 -5 25 -9 48 -9 23 0 58 -5 77 -10 19 -6 62 -15 95 -21 170 -28 223 -38
260 -48 22 -6 57 -11 78 -11 21 0 48 -5 59 -11 11 -6 57 -15 102 -20 44 -4
105 -13 134 -19 29 -6 68 -10 85 -8 28 3 32 7 38 40 3 20 2 69 -3 110 -5 40
-6 118 -3 173 3 55 8 214 10 353 l5 252 -843 0 c-464 0 -847 -3 -850 -6z"/>
<path d="M4631 11173 c-6 -197 -10 -387 -7 -423 3 -36 6 -83 6 -105 0 -22 4
-46 9 -53 10 -17 182 -45 446 -72 50 -5 101 -12 115 -15 36 -9 265 -33 410
-45 69 -5 147 -14 173 -20 62 -13 134 -13 142 1 4 5 8 225 10 487 2 262 6 505
10 540 l8 62 -655 0 -654 0 -13 -357z"/>
<path d="M6124 11433 c-9 -129 -11 -951 -2 -984 5 -15 16 -31 25 -35 10 -5 95
-11 188 -15 94 -4 245 -12 337 -17 236 -15 1123 -26 1309 -17 l157 7 6 72 c12
150 25 543 25 809 l1 277 -1019 0 -1019 0 -8 -97z"/>
<path d="M8249 11238 c0 -161 -5 -360 -11 -443 -5 -82 -11 -211 -11 -285 l-2
-135 230 2 c127 2 254 7 284 13 30 5 116 10 190 10 76 0 173 7 221 15 47 8
126 15 175 15 50 0 119 6 155 14 36 7 106 14 155 15 84 2 144 13 172 34 24 17
35 231 37 692 l1 340 -797 3 -798 2 -1 -292z"/>
<path d="M9916 11473 c10 -63 12 -549 4 -808 l-5 -160 40 2 c78 3 241 21 285
32 25 5 68 10 97 11 28 0 64 5 80 11 15 6 62 15 103 20 106 12 353 52 515 84
44 8 105 19 135 24 31 5 73 14 95 19 22 6 83 18 135 28 146 25 135 13 149 151
8 72 11 219 9 378 l-3 260 -824 3 -824 2 9 -57z"/>
<path d="M11644 11514 c7 -19 10 -510 3 -521 -3 -5 -6 -51 -8 -103 l-4 -95 30
2 c49 3 256 46 274 57 6 4 32 11 59 16 26 5 76 16 112 25 36 9 92 23 125 32
97 24 112 26 120 13 9 -15 9 -166 0 -180 -3 -6 -18 -10 -33 -10 -14 0 -44 -6
-67 -14 -43 -15 -116 -34 -180 -47 -22 -4 -69 -15 -105 -24 -85 -22 -182 -43
-247 -54 -28 -6 -65 -17 -81 -25 -28 -15 -31 -21 -36 -83 -3 -38 -11 -104 -17
-148 -6 -44 -14 -118 -19 -165 -4 -47 -11 -92 -14 -100 -3 -8 -10 -44 -15 -80
-26 -184 -85 -462 -137 -644 -8 -26 -14 -56 -14 -65 0 -9 -7 -36 -16 -60 -9
-28 -11 -48 -5 -54 12 -12 86 -1 231 33 57 14 132 30 185 41 27 6 59 16 70 22
11 6 38 14 60 18 22 5 69 15 105 24 36 9 86 20 112 25 26 5 55 13 65 18 10 5
34 12 54 16 33 6 37 10 43 44 3 20 6 56 6 79 0 23 5 45 10 48 6 3 10 25 10 49
0 23 4 46 9 52 6 5 15 110 20 234 15 308 18 359 26 403 l7 38 797 -4 c833 -4
856 -5 922 -48 13 -9 42 -22 64 -30 22 -7 49 -21 60 -30 11 -9 41 -28 67 -43
86 -50 268 -248 268 -293 0 -5 9 -18 19 -27 11 -10 28 -43 37 -74 10 -32 25
-75 35 -97 22 -50 39 -171 39 -278 -1 -95 -16 -225 -29 -241 -8 -10 -23 -57
-26 -81 -2 -14 -24 -65 -41 -95 -7 -14 -21 -40 -29 -57 -8 -18 -19 -33 -24
-33 -5 0 -15 -15 -22 -32 -15 -37 -177 -201 -220 -224 -16 -8 -45 -25 -64 -39
-20 -13 -53 -29 -73 -36 -20 -6 -44 -17 -52 -24 -20 -17 -147 -45 -203 -45
-27 0 -49 -6 -57 -15 -19 -23 -721 -22 -740 0 -9 11 -30 16 -64 15 -81 -1
-151 15 -233 51 -24 10 -50 19 -60 19 -20 0 -220 96 -228 111 -4 5 -24 17 -46
26 -22 8 -45 23 -52 33 -6 9 -25 24 -42 33 -16 9 -64 48 -104 87 l-75 71 18
127 c10 70 23 133 29 140 13 17 26 91 17 97 -4 3 -27 -1 -51 -9 -101 -33 -147
-45 -191 -51 -26 -3 -50 -10 -53 -16 -4 -5 -24 -9 -47 -9 -22 0 -61 -6 -87
-14 -40 -13 -118 -31 -216 -51 -39 -8 -145 -30 -220 -47 -54 -12 -62 -17 -76
-48 -21 -43 -38 -93 -50 -145 -6 -22 -14 -44 -20 -49 -5 -6 -9 -21 -9 -34 0
-13 -6 -36 -14 -50 -7 -15 -21 -54 -31 -87 -9 -33 -23 -72 -31 -87 -8 -14 -14
-35 -14 -46 0 -12 -4 -23 -9 -26 -5 -3 -12 -18 -15 -33 -4 -16 -13 -41 -21
-58 -7 -16 -28 -66 -45 -110 -33 -85 -33 -84 -79 -188 -17 -38 -31 -71 -31
-74 0 -16 -246 -496 -293 -571 -32 -51 -77 -131 -77 -138 0 -10 160 20 189 35
11 6 32 11 46 11 14 0 35 5 46 11 11 6 41 14 67 19 26 4 61 13 77 18 62 21
111 36 145 43 19 4 49 12 65 18 17 5 57 17 90 26 33 9 67 20 76 25 9 5 34 12
55 16 22 3 44 10 49 14 6 4 44 18 85 31 92 29 115 43 146 88 14 20 38 54 54
76 16 22 29 48 30 58 0 25 17 21 64 -13 60 -45 110 -76 174 -111 31 -16 64
-34 72 -38 44 -25 173 -82 228 -101 34 -13 65 -27 68 -31 3 -5 16 -9 29 -9 13
0 27 -5 30 -10 4 -6 12 -10 18 -9 13 3 91 -17 122 -31 23 -10 69 -21 105 -26
14 -1 61 -9 105 -17 44 -8 112 -21 150 -28 99 -18 914 -17 1005 0 97 20 222
42 250 45 33 4 83 17 95 26 6 4 31 12 58 19 26 6 77 25 112 41 36 17 68 30 71
30 7 0 73 28 94 40 8 5 38 21 65 36 28 14 57 32 65 39 8 7 34 22 58 34 23 12
42 26 42 31 0 5 15 18 34 27 47 25 129 90 202 160 93 88 225 235 235 260 4 12
29 48 54 81 25 32 59 83 75 113 56 101 140 276 140 290 0 8 9 27 19 43 11 17
17 34 15 38 -3 5 -2 14 4 21 5 7 15 41 22 77 13 72 27 125 40 155 5 11 11 42
14 70 4 27 11 54 16 59 13 13 14 506 1 506 -5 0 -12 28 -16 63 -4 34 -11 67
-16 73 -8 10 -55 196 -63 247 -1 10 -7 22 -13 25 -6 4 -18 32 -27 63 -20 70
-156 337 -190 374 -14 15 -26 32 -26 38 0 5 -24 38 -52 73 -29 34 -66 81 -83
104 -39 54 -236 239 -275 258 -17 8 -30 18 -30 22 0 5 -22 22 -50 39 -27 17
-50 35 -50 41 0 5 -6 10 -12 11 -7 0 -33 13 -58 29 -25 16 -65 38 -90 50 -24
11 -51 27 -60 34 -8 7 -33 19 -55 26 -22 7 -60 23 -84 36 -24 13 -50 24 -57
24 -16 0 -132 37 -156 50 -9 5 -40 12 -70 15 -29 4 -62 10 -73 15 -64 28 -203
33 -977 37 l-798 4 0 60 0 59 -371 0 c-340 0 -371 -1 -365 -16z"/>
<path d="M1852 10448 c2 -294 8 -540 13 -548 4 -7 7 -46 6 -85 -1 -40 2 -76 7
-79 5 -3 13 -25 16 -48 6 -43 7 -43 69 -62 34 -10 80 -24 102 -31 97 -31 149
-45 166 -45 10 0 20 -4 23 -9 3 -5 27 -12 52 -16 26 -4 54 -10 63 -15 18 -8
81 -26 150 -41 25 -5 59 -13 75 -18 98 -29 222 -61 278 -71 26 -5 56 -13 67
-19 28 -15 68 -14 74 3 3 8 0 36 -8 63 -21 76 -37 144 -45 193 -4 25 -17 86
-29 135 -12 50 -26 123 -32 163 -5 40 -14 84 -19 98 -6 14 -10 46 -10 71 0 25
-7 82 -15 127 -20 112 -45 347 -45 427 0 83 -16 104 -85 118 -27 5 -79 17
-115 26 -36 9 -88 20 -116 24 -28 5 -61 14 -72 20 -11 6 -32 11 -46 11 -14 0
-35 4 -48 9 -13 4 -57 18 -98 30 -41 12 -95 29 -120 37 -25 8 -53 14 -63 14
-11 0 -33 6 -50 14 -18 8 -45 17 -62 20 -16 2 -43 8 -59 12 l-29 7 5 -535z"/>
<path d="M2893 10614 c5 -102 20 -233 38 -339 5 -33 14 -99 19 -147 5 -49 12
-93 16 -99 4 -7 10 -39 14 -73 9 -75 27 -164 46 -232 8 -28 14 -68 14 -88 0
-21 4 -45 10 -55 5 -10 14 -45 19 -77 15 -84 34 -149 49 -167 7 -8 43 -23 80
-32 37 -9 89 -23 116 -31 26 -8 65 -14 85 -14 20 0 41 -4 47 -9 5 -5 43 -15
84 -21 162 -25 188 -30 214 -40 15 -5 45 -10 67 -10 22 0 56 -7 76 -15 19 -8
52 -15 73 -15 21 0 57 -7 80 -15 23 -8 59 -15 79 -15 20 0 61 -7 91 -15 30 -8
72 -15 92 -15 20 0 49 -5 65 -11 15 -7 62 -15 103 -20 41 -4 115 -14 163 -22
61 -9 90 -10 96 -3 10 12 9 21 -45 267 -8 37 -14 81 -14 97 0 17 -5 43 -11 59
-6 15 -15 62 -19 103 -5 41 -16 134 -24 205 -9 72 -21 189 -26 260 -6 72 -15
157 -20 190 -6 33 -10 86 -10 118 0 50 -3 59 -22 66 -37 15 -216 46 -348 62
-47 5 -93 14 -102 19 -10 6 -35 10 -56 10 -21 0 -61 7 -88 15 -27 8 -67 15
-89 15 -22 1 -58 7 -80 15 -22 8 -53 15 -70 15 -28 0 -110 16 -210 42 -22 5
-65 13 -95 18 -75 10 -165 29 -224 46 -26 8 -57 14 -67 14 -10 0 -43 6 -73 14
-30 8 -76 18 -102 22 l-47 7 6 -99z"/>
<path d="M11440 10550 c-80 -14 -164 -31 -216 -46 -28 -8 -67 -14 -86 -14 -19
0 -57 -7 -84 -15 -27 -8 -60 -15 -74 -15 -14 0 -54 -6 -90 -14 -69 -15 -174
-33 -280 -47 -186 -25 -230 -31 -290 -45 -36 -8 -95 -14 -132 -14 -37 0 -69
-4 -72 -9 -3 -4 -47 -11 -97 -15 -51 -4 -100 -11 -109 -16 -14 -7 -19 -29 -24
-97 -4 -48 -11 -108 -16 -133 -12 -58 -41 -238 -50 -315 -11 -88 -40 -256 -45
-265 -2 -3 -9 -33 -15 -66 -16 -87 -37 -190 -55 -264 -9 -36 -20 -86 -25 -112
-5 -26 -13 -56 -19 -67 -6 -11 -11 -31 -11 -45 0 -25 2 -26 63 -25 34 0 85 4
112 9 28 6 93 14 145 20 52 5 122 14 155 19 99 16 216 32 295 41 41 4 95 12
120 18 59 14 169 32 250 41 36 4 78 13 93 19 16 7 47 12 70 12 23 0 60 7 82
15 22 8 59 14 82 15 23 0 44 4 48 9 3 6 25 13 49 16 48 8 56 18 76 95 6 25 18
70 26 100 9 30 19 78 23 105 10 58 28 143 43 200 7 22 15 63 19 90 9 61 26
145 40 205 6 25 15 77 20 115 22 185 29 234 40 280 7 28 13 88 13 135 1 94 3
93 -74 80z"/>
<path d="M4650 10375 c-13 -16 -8 -146 10 -240 5 -27 9 -90 9 -138 1 -49 6
-97 12 -108 6 -11 14 -59 19 -107 9 -96 24 -192 46 -292 8 -36 14 -74 14 -85
0 -19 9 -65 46 -222 8 -34 14 -74 14 -90 0 -15 9 -42 19 -59 21 -35 22 -35
206 -54 55 -5 107 -13 115 -16 8 -3 65 -9 126 -14 62 -5 124 -14 138 -20 15
-5 55 -10 89 -10 34 -1 94 -5 132 -10 59 -8 140 -16 365 -33 23 -2 25 2 28 47
2 27 -2 61 -8 75 -12 31 -25 177 -40 476 -6 116 -15 224 -20 240 -5 17 -12
138 -15 270 -5 191 -9 243 -21 255 -11 11 -47 17 -132 21 -141 7 -333 26 -422
41 -36 5 -110 14 -165 19 -55 5 -152 15 -215 23 -234 29 -286 36 -312 40 -16
3 -31 -1 -38 -9z"/>
<path d="M9625 10278 c-33 -4 -126 -12 -206 -16 -80 -5 -151 -12 -159 -17 -17
-10 -422 -35 -730 -45 -254 -8 -305 -13 -314 -35 -2 -7 -9 -93 -15 -191 -6
-99 -16 -224 -21 -279 -5 -55 -12 -158 -15 -230 -4 -71 -11 -141 -16 -155 -5
-15 -14 -89 -19 -165 -5 -77 -14 -178 -19 -224 -5 -46 -7 -90 -4 -97 9 -24 72
-27 262 -15 102 6 278 16 391 21 113 5 219 12 235 15 17 3 98 10 180 15 83 6
199 16 260 23 101 11 110 14 121 37 15 30 36 108 59 215 9 44 21 90 26 103 5
13 9 34 9 48 0 14 7 53 15 87 8 34 22 98 30 142 9 44 22 112 31 150 8 39 14
84 14 100 0 17 6 55 14 85 8 30 17 93 20 140 3 47 11 129 17 184 5 54 7 101 4
104 -8 9 -103 8 -170 0z"/>
<path d="M6137 10224 c-10 -11 -9 -214 3 -335 6 -57 15 -169 20 -249 5 -80 12
-170 14 -200 3 -30 7 -98 10 -151 3 -53 10 -118 16 -146 5 -28 14 -100 20
-159 6 -60 16 -114 23 -122 8 -10 31 -13 86 -11 44 2 85 -1 96 -8 11 -6 99
-14 205 -17 102 -3 244 -10 315 -16 206 -15 1050 -13 1062 3 6 6 13 50 17 96
4 46 10 91 15 100 5 9 11 74 14 144 4 70 11 136 17 147 5 10 10 67 11 127 0
59 5 133 10 163 6 30 14 138 19 240 5 102 12 203 17 225 5 22 6 58 3 80 -4 35
-9 40 -37 46 -18 3 -52 3 -75 -2 -59 -11 -714 -11 -763 1 -22 5 -195 12 -385
15 -190 3 -374 10 -410 15 -95 13 -314 22 -323 14z"/>
<path d="M1913 9529 c3 -13 9 -62 13 -109 3 -47 10 -89 14 -95 4 -5 10 -26 13
-45 25 -147 43 -239 50 -246 4 -4 7 -18 7 -31 0 -13 5 -31 10 -41 9 -15 19
-54 53 -209 6 -29 14 -53 18 -53 4 0 10 -19 14 -42 3 -24 10 -52 15 -63 4 -11
18 -49 30 -85 12 -36 28 -79 36 -97 8 -17 14 -40 14 -51 0 -22 96 -214 138
-275 27 -40 62 -63 137 -90 78 -29 130 -49 147 -58 10 -5 23 -9 30 -9 7 -1 31
-9 53 -20 22 -11 48 -19 57 -20 9 0 19 -4 23 -9 3 -5 20 -13 37 -17 18 -3 39
-10 48 -14 19 -9 77 -29 115 -40 34 -10 110 -36 140 -49 11 -5 47 -17 80 -26
33 -10 74 -24 92 -32 17 -7 39 -13 50 -13 10 -1 29 -7 43 -15 14 -8 36 -14 50
-15 15 0 30 -4 35 -9 6 -6 28 -14 50 -20 22 -5 65 -17 95 -25 30 -8 56 -13 58
-11 3 2 -4 21 -15 42 -11 21 -38 74 -60 118 -78 151 -169 349 -198 430 -10 28
-21 55 -25 60 -4 6 -17 37 -30 70 -13 33 -27 64 -32 70 -4 5 -8 15 -8 23 0 8
-6 28 -14 45 -33 77 -39 94 -46 122 -10 35 -28 87 -47 132 -7 17 -13 40 -13
50 0 10 -4 23 -9 29 -6 5 -14 27 -20 49 -6 22 -17 63 -25 90 -34 115 -48 164
-67 235 -11 41 -26 81 -34 89 -7 8 -33 18 -57 22 -24 4 -63 13 -88 19 -25 7
-72 19 -105 27 -33 8 -82 20 -110 28 -27 8 -61 16 -75 18 -14 3 -52 12 -85 22
-33 9 -80 21 -105 26 -25 5 -54 13 -65 18 -11 6 -40 14 -65 19 -25 6 -70 18
-100 27 -30 9 -71 20 -90 24 -19 4 -44 12 -55 18 -11 6 -36 13 -55 16 -19 3
-44 9 -54 13 -16 6 -18 4 -13 -17z"/>
<path d="M3143 9214 c4 -10 11 -37 16 -59 37 -152 153 -520 186 -592 8 -17 15
-38 15 -46 0 -9 4 -18 9 -21 5 -3 12 -18 15 -33 6 -27 24 -67 53 -125 7 -14
13 -33 13 -42 0 -9 4 -24 10 -34 12 -22 70 -152 70 -157 0 -12 164 -347 211
-432 67 -119 65 -118 126 -136 32 -10 79 -25 104 -33 26 -7 55 -14 65 -14 11
0 32 -7 48 -15 15 -8 42 -15 60 -15 17 0 44 -7 60 -15 15 -8 41 -15 57 -15 17
0 46 -7 66 -15 19 -8 49 -15 65 -15 16 0 38 -5 49 -10 10 -6 47 -15 82 -20 34
-5 94 -16 132 -25 39 -9 93 -20 121 -24 28 -5 61 -14 72 -20 11 -6 38 -11 59
-11 21 0 58 -6 83 -14 45 -14 130 -30 245 -46 33 -4 75 -12 94 -16 32 -7 33
-6 26 17 -4 13 -20 51 -35 84 -59 128 -81 178 -105 238 -14 34 -30 71 -34 82
-5 11 -16 40 -26 65 -9 25 -22 54 -27 64 -6 11 -14 31 -18 45 -5 14 -18 51
-30 81 -11 30 -30 82 -41 115 -12 33 -27 74 -35 92 -8 17 -14 38 -14 47 0 9
-4 24 -9 34 -9 16 -48 134 -76 232 -7 25 -20 70 -29 100 -33 111 -79 286 -88
338 -13 70 -38 88 -131 97 -39 4 -88 11 -107 16 -19 5 -69 14 -110 19 -41 5
-91 12 -110 15 -19 3 -78 13 -130 21 -52 8 -121 22 -152 30 -32 8 -72 14 -90
14 -17 0 -57 6 -87 14 -31 8 -83 19 -116 26 -110 21 -189 38 -260 55 -38 9
-93 20 -122 25 -28 4 -58 12 -65 16 -7 5 -38 12 -68 16 -30 4 -66 10 -79 14
-20 6 -22 4 -18 -12z"/>
<path d="M11178 9055 c-6 -6 -137 -31 -238 -45 -36 -5 -81 -14 -100 -20 -19
-5 -51 -10 -71 -10 -20 0 -56 -7 -79 -15 -23 -8 -66 -15 -95 -15 -28 0 -74 -7
-101 -15 -27 -8 -73 -15 -102 -15 -29 0 -62 -5 -73 -11 -11 -5 -59 -12 -107
-15 -48 -3 -100 -10 -117 -16 -16 -5 -75 -14 -130 -19 -219 -20 -325 -35 -339
-49 -14 -14 -46 -115 -65 -200 -4 -19 -13 -45 -19 -57 -7 -12 -12 -31 -12 -42
0 -10 -6 -32 -14 -48 -8 -15 -24 -57 -35 -93 -29 -93 -78 -230 -85 -237 -3 -4
-6 -13 -6 -21 0 -8 -6 -28 -14 -45 -7 -18 -20 -50 -29 -72 -34 -89 -111 -274
-138 -332 -16 -35 -29 -65 -29 -67 0 -9 -72 -162 -156 -332 -46 -93 -84 -173
-84 -177 0 -11 199 -8 221 3 10 6 69 15 131 20 62 5 129 13 148 19 19 6 60 11
91 11 31 0 73 7 92 15 20 8 61 15 90 15 30 0 67 5 83 10 16 6 58 14 94 20 67
10 169 28 300 54 280 55 264 47 337 169 34 56 75 129 93 162 18 33 36 65 40
70 4 6 31 55 60 109 69 131 63 120 103 206 19 41 51 109 71 152 19 42 45 100
56 130 11 29 24 62 29 73 5 11 16 40 26 65 17 44 26 66 59 143 9 21 16 46 16
57 0 10 4 21 9 24 5 3 19 39 30 78 12 40 25 80 30 88 4 8 18 49 30 90 12 41
29 90 37 108 18 43 18 68 -2 76 -19 7 -29 8 -36 1z"/>
<path d="M4875 8869 c3 -24 11 -57 16 -74 4 -16 18 -64 29 -105 12 -41 25 -86
30 -100 5 -14 12 -41 16 -60 3 -19 10 -39 14 -45 4 -5 10 -23 13 -40 2 -16 10
-43 16 -60 11 -32 56 -170 71 -220 11 -37 63 -181 77 -215 6 -14 25 -63 43
-110 17 -47 38 -98 45 -115 7 -16 20 -52 30 -78 10 -26 22 -50 26 -53 5 -3 9
-12 9 -19 0 -8 16 -50 36 -92 38 -81 84 -182 110 -244 21 -49 47 -62 134 -67
41 -2 83 -9 93 -14 11 -5 60 -14 110 -18 94 -9 185 -21 337 -42 47 -7 112 -13
145 -13 l60 0 -2 40 c-2 22 -10 69 -18 105 -24 102 -43 190 -55 255 -13 74
-34 177 -54 275 -9 41 -16 92 -16 113 0 21 -7 54 -15 74 -8 19 -15 54 -15 77
0 23 -7 68 -15 99 -8 32 -15 75 -15 95 0 20 -7 62 -15 92 -8 30 -15 78 -15
107 0 29 -7 78 -15 110 -8 31 -15 76 -15 100 0 23 -5 64 -10 90 -15 69 -42 81
-195 86 -117 4 -258 17 -400 38 -38 6 -118 14 -176 18 -58 4 -110 11 -116 14
-5 4 -55 11 -109 17 -54 5 -121 13 -148 16 l-48 7 7 -44z"/>
<path d="M9380 8800 c-47 -4 -150 -12 -230 -18 -310 -26 -411 -32 -575 -37
-319 -10 -450 -16 -467 -21 -9 -3 -20 -13 -23 -24 -6 -20 -20 -133 -36 -300
-5 -58 -14 -113 -19 -122 -6 -10 -10 -41 -10 -70 -1 -29 -6 -73 -11 -98 -6
-25 -14 -76 -19 -115 -4 -38 -12 -97 -18 -130 -6 -33 -16 -87 -22 -120 -6 -33
-15 -91 -20 -130 -4 -38 -13 -83 -19 -98 -6 -16 -11 -45 -11 -65 0 -20 -7 -59
-15 -86 -8 -27 -15 -66 -15 -87 0 -21 -5 -50 -11 -66 -6 -15 -15 -53 -19 -83
-5 -30 -12 -66 -15 -81 -9 -34 23 -48 100 -42 33 3 186 8 340 13 154 5 298 13
320 19 22 6 79 11 126 11 75 0 89 3 110 23 21 19 158 284 232 447 30 68 74
165 91 205 7 17 18 41 24 55 6 14 28 66 47 115 20 50 43 104 51 122 8 17 14
37 14 45 0 8 4 18 9 24 9 10 70 181 128 359 19 61 41 126 48 145 7 19 21 62
30 95 9 33 20 70 25 82 7 18 5 25 -10 33 -10 5 -25 9 -32 8 -7 -1 -51 -4 -98
-8z"/>
<path d="M6252 8753 c-6 -11 -4 -47 5 -93 15 -84 31 -197 43 -310 4 -41 13
-88 19 -103 6 -16 11 -47 11 -70 0 -23 7 -67 15 -97 8 -30 15 -71 15 -91 0
-20 7 -56 15 -79 8 -23 15 -59 15 -79 0 -20 4 -52 10 -71 9 -31 26 -119 50
-250 4 -25 22 -110 40 -190 17 -80 36 -165 41 -190 5 -24 15 -51 23 -58 20
-20 358 -49 604 -51 79 -1 154 -6 167 -11 24 -9 381 -4 397 6 21 13 40 94 67
274 4 30 13 75 19 100 12 50 29 150 42 250 5 36 14 81 20 100 5 19 10 54 10
77 0 23 5 54 11 70 6 15 15 62 19 103 5 41 16 125 25 185 9 61 22 157 29 215
7 58 15 112 19 120 3 8 8 58 9 110 l3 95 -425 7 c-582 9 -1085 25 -1145 37
-85 17 -163 14 -173 -6z"/>
<path d="M2490 7829 c0 -6 13 -29 29 -52 16 -23 66 -98 111 -167 46 -69 93
-137 104 -152 12 -15 39 -52 61 -83 101 -141 309 -396 434 -530 131 -141 410
-411 541 -524 227 -194 309 -253 366 -264 16 -2 43 -9 59 -15 17 -6 59 -18 95
-27 36 -10 76 -21 89 -27 14 -5 43 -13 65 -18 58 -12 151 -35 221 -55 33 -9
81 -20 108 -25 26 -5 62 -13 80 -19 53 -16 129 -33 177 -38 25 -3 51 -10 58
-15 9 -8 11 -6 5 9 -5 11 -57 64 -118 118 -175 156 -267 248 -434 436 -188
212 -209 238 -331 399 -142 188 -339 480 -375 557 -21 44 -71 92 -103 98 -15
3 -61 16 -102 30 -41 13 -92 26 -113 30 -20 4 -40 11 -43 16 -3 5 -13 9 -22 9
-16 0 -182 49 -252 74 -70 26 -106 38 -135 46 -37 10 -89 29 -132 47 -17 7
-39 13 -50 13 -10 0 -27 7 -37 15 -11 8 -28 15 -38 15 -9 0 -32 6 -50 14 -18
8 -49 21 -70 30 -20 9 -42 16 -50 16 -8 0 -18 3 -21 6 -7 7 -106 43 -119 44
-5 0 -8 -5 -8 -11z"/>
<path d="M2590 7489 c0 -9 9 -24 20 -34 11 -10 32 -45 47 -77 14 -32 29 -58
33 -58 4 0 15 -19 26 -41 10 -23 33 -60 51 -83 18 -22 33 -46 33 -53 0 -6 4
-13 8 -15 4 -1 19 -21 32 -43 28 -49 75 -115 113 -160 15 -18 27 -38 27 -44 0
-6 4 -11 9 -11 5 0 20 -19 34 -42 14 -24 71 -96 126 -161 56 -66 101 -122 101
-127 0 -4 26 -34 58 -67 31 -33 90 -96 131 -141 59 -63 82 -82 110 -87 20 -4
50 -12 66 -19 94 -40 171 -57 164 -38 -2 5 -69 68 -148 138 -250 222 -462 443
-727 760 -41 50 -197 258 -247 329 -51 74 -67 91 -67 74z"/>
<path d="M11517 7454 c-6 -7 -87 -28 -167 -45 -24 -5 -49 -14 -54 -19 -6 -6
-19 -10 -30 -10 -20 0 -38 -5 -161 -44 -27 -9 -62 -16 -76 -16 -14 0 -34 -7
-45 -15 -10 -8 -34 -15 -52 -15 -18 0 -43 -5 -55 -12 -12 -6 -40 -15 -62 -19
-99 -20 -153 -33 -188 -45 -20 -8 -51 -14 -68 -14 -53 0 -86 -27 -151 -123
-250 -374 -622 -797 -958 -1091 -63 -55 -117 -103 -120 -106 -3 -3 -50 -41
-105 -84 -128 -101 -121 -94 -109 -106 8 -8 29 -6 70 4 32 8 93 19 134 25 41
6 111 17 155 26 44 9 105 20 135 25 30 4 68 13 83 19 16 6 40 11 55 11 33 1
129 33 145 49 6 6 15 11 20 11 9 0 375 271 451 334 267 223 586 530 788 761
108 124 126 147 280 350 50 66 95 125 100 132 9 12 -4 27 -15 17z"/>
<path d="M3925 7371 c-3 -6 15 -43 41 -83 25 -40 58 -92 72 -116 58 -95 203
-295 316 -437 158 -198 307 -363 493 -546 293 -289 434 -403 518 -421 111 -24
526 -89 710 -112 61 -8 111 -15 113 -15 1 -1 2 -8 2 -17 0 -15 -14 -16 -127
-10 -156 8 -141 8 -180 0 -18 -3 -41 -3 -50 1 -10 4 -52 7 -93 6 -45 -1 -106
6 -154 18 -44 11 -83 18 -88 15 -4 -3 -8 -14 -8 -25 0 -18 -6 -20 -61 -18 -50
2 -65 7 -89 29 -40 38 -134 80 -176 80 -19 0 -45 5 -56 11 -12 7 -47 15 -77
20 -61 9 -159 29 -261 54 -36 8 -90 20 -120 26 -30 6 -59 15 -64 20 -6 5 -21
9 -34 9 -26 0 -157 36 -184 51 -22 11 -45 12 -52 0 -7 -10 72 -64 312 -212 56
-34 102 -69 102 -76 0 -10 -18 -13 -72 -11 -60 2 -78 7 -98 25 -14 13 -28 23
-32 23 -4 0 -37 20 -74 45 -36 25 -67 45 -70 45 -5 0 -114 73 -170 115 -23 16
-52 37 -64 45 -12 8 -48 34 -79 56 -32 23 -72 45 -89 49 -18 3 -34 11 -37 16
-4 5 -17 9 -31 9 -14 0 -35 5 -47 12 -12 6 -35 15 -52 19 -35 9 -91 28 -122
42 -38 17 -37 1 3 -35 20 -18 65 -59 98 -90 34 -32 64 -58 68 -58 4 0 40 -28
81 -62 137 -116 192 -158 205 -158 5 0 12 -7 15 -15 3 -7 23 -23 44 -34 l38
-20 -1941 -1 c-1629 0 -1943 -2 -1953 -14 -6 -7 -36 -21 -66 -31 -80 -25 -173
-119 -226 -229 -38 -80 -39 -83 -39 -197 0 -87 4 -119 14 -128 7 -6 16 -24 19
-40 3 -15 17 -42 31 -59 15 -16 26 -36 26 -44 0 -15 30 -48 44 -48 4 0 21 -14
38 -30 16 -17 36 -30 43 -30 8 0 20 -9 27 -19 9 -12 39 -26 78 -35 56 -13 182
-16 888 -16 l822 0 0 -34 c0 -91 87 -205 208 -274 17 -9 1007 -12 4857 -12
l4835 0 55 35 c94 61 144 128 160 218 l11 62 821 2 c451 2 827 5 834 7 8 2 37
10 66 16 28 6 59 20 68 30 9 10 28 23 43 30 28 12 142 140 142 158 0 13 32 75
43 83 13 9 12 245 0 261 -5 7 -20 38 -32 69 -12 31 -36 69 -52 85 -16 15 -29
34 -29 41 0 7 -4 13 -10 13 -5 0 -27 16 -49 35 -21 19 -41 35 -45 35 -3 0 -34
13 -69 30 l-64 30 -1929 2 c-1505 2 -1923 6 -1902 15 14 7 30 18 35 26 4 8 26
25 48 39 22 14 48 35 58 46 10 11 32 26 48 32 34 15 40 36 7 25 -51 -15 -136
-37 -183 -46 -87 -18 -132 -37 -219 -94 -89 -58 -139 -75 -221 -74 l-50 0 28
24 c15 14 35 25 43 25 8 0 14 4 14 10 0 16 -46 23 -69 10 -22 -11 -140 -33
-281 -50 -112 -15 -600 -24 -600 -12 0 5 26 12 58 16 109 11 170 22 183 32 8
6 70 53 139 104 205 154 353 284 570 500 277 276 378 393 598 688 67 90 122
168 122 174 0 12 -78 5 -185 -16 -44 -9 -111 -21 -149 -26 -38 -5 -76 -12 -85
-15 -22 -9 -180 -34 -276 -44 -44 -5 -96 -14 -115 -20 -19 -6 -57 -11 -85 -11
-27 0 -77 -7 -110 -15 -33 -8 -94 -14 -135 -15 -42 0 -102 -7 -133 -15 -32 -8
-85 -15 -117 -15 -78 0 -101 -12 -131 -68 -57 -109 -319 -537 -423 -691 -231
-342 -377 -539 -413 -558 -34 -17 -70 -16 -77 2 -3 10 38 73 113 173 107 143
159 215 304 427 96 141 175 267 378 608 50 83 50 83 -108 79 -76 -1 -185 -8
-243 -14 -58 -6 -206 -14 -329 -17 l-224 -6 -8 -25 c-4 -14 -12 -52 -19 -85
-22 -109 -51 -240 -61 -271 -5 -17 -9 -43 -9 -58 0 -14 -7 -43 -15 -63 -8 -19
-15 -48 -15 -64 0 -15 -5 -40 -11 -56 -7 -15 -15 -48 -20 -73 -4 -25 -13 -65
-19 -90 -23 -87 -39 -146 -54 -201 -9 -31 -16 -67 -16 -80 -1 -13 -7 -35 -15
-49 -8 -14 -14 -38 -15 -55 0 -16 -9 -45 -20 -62 -16 -27 -26 -33 -55 -33 -40
0 -40 0 -19 71 8 30 22 78 29 107 8 28 21 76 29 105 8 28 17 63 20 77 5 26 19
81 41 165 20 76 37 146 46 190 10 50 32 147 54 245 10 41 21 95 25 120 4 25
15 70 24 101 9 31 14 63 11 72 -6 13 -50 16 -343 20 -185 3 -357 7 -382 10
-160 14 -378 19 -384 9 -4 -6 7 -63 24 -126 16 -63 30 -125 30 -139 0 -14 7
-38 15 -53 8 -16 15 -37 15 -48 0 -10 7 -39 14 -65 8 -25 23 -73 32 -106 9
-33 23 -78 29 -100 15 -48 33 -110 69 -230 15 -49 32 -103 37 -120 6 -16 15
-43 19 -60 5 -16 24 -73 42 -125 18 -52 32 -105 30 -118 -3 -22 -7 -23 -80
-20 -86 3 -103 13 -122 77 -6 20 -15 45 -20 56 -11 27 -34 99 -71 220 -16 55
-37 123 -46 150 -8 28 -21 68 -28 90 -18 56 -72 239 -91 305 -8 30 -22 76 -30
101 -7 26 -14 56 -14 68 0 11 -6 38 -14 58 -7 21 -21 74 -31 118 -10 44 -25
86 -34 93 -8 6 -33 12 -55 12 -23 0 -61 5 -86 11 -25 6 -97 14 -160 19 -109 9
-231 24 -403 51 -88 14 -112 5 -89 -31 7 -11 38 -68 69 -127 50 -97 72 -136
110 -198 7 -11 22 -38 33 -60 37 -69 162 -278 191 -322 16 -23 29 -44 29 -47
0 -3 22 -38 49 -78 27 -40 89 -135 139 -210 143 -216 233 -338 250 -338 8 0
12 -3 8 -7 -9 -10 -96 -10 -96 -1 0 5 -32 8 -71 8 -48 0 -68 3 -63 11 3 6 15
8 26 6 25 -7 48 1 48 17 -1 6 -21 36 -45 66 -37 46 -214 306 -331 485 -39 61
-138 224 -147 245 -4 8 -13 24 -19 35 -54 83 -160 275 -278 503 -17 34 -36 64
-40 67 -17 11 -122 30 -340 64 -30 5 -68 14 -83 20 -16 6 -47 11 -70 11 -23 1
-53 7 -67 15 -14 8 -42 14 -63 15 -21 0 -54 7 -74 15 -19 8 -48 15 -63 15 -15
0 -50 6 -76 14 -64 19 -136 35 -200 46 -28 4 -61 13 -72 19 -11 6 -31 11 -44
11 -13 0 -43 6 -68 14 -25 8 -74 22 -110 31 -36 9 -86 22 -111 30 -55 18 -66
18 -74 6z"/>
<path d="M11330 7025 c-7 -9 -8 -15 -2 -15 5 0 12 7 16 15 3 8 4 15 2 15 -2 0
-9 -7 -16 -15z"/>
<path d="M11256 6942 c-305 -351 -674 -698 -1014 -952 -64 -48 -108 -88 -103
-93 8 -8 49 2 163 39 26 9 52 13 57 10 5 -4 21 4 34 16 13 13 62 57 108 98
128 116 312 304 436 446 62 71 121 138 132 149 11 12 25 33 32 48 7 14 20 29
30 32 9 3 20 16 23 28 3 12 26 45 51 72 24 28 45 54 45 59 0 6 8 19 19 30 27
31 55 76 45 75 -5 0 -31 -26 -58 -57z"/>
<path d="M11741 3859 c-12 -19 -24 -50 -28 -69 -13 -57 -9 -672 5 -840 15
-194 40 -394 58 -484 16 -77 12 -93 -19 -71 -13 9 -44 15 -82 15 -52 0 -70 -5
-121 -35 -32 -20 -71 -50 -86 -68 -41 -48 -86 -145 -108 -233 -26 -101 -28
-321 -3 -443 15 -79 15 -89 -2 -180 -30 -161 -66 -236 -121 -247 -45 -9 -69
22 -88 110 -23 112 -27 191 -16 326 6 69 13 172 16 230 l6 105 -31 32 c-24 24
-49 36 -101 47 -165 38 -213 15 -288 -139 -52 -108 -93 -251 -126 -445 -9 -52
-19 -113 -23 -135 -13 -77 -25 98 -20 294 3 104 1 195 -5 211 -13 40 -116 80
-203 80 -82 0 -85 -9 -74 -290 5 -129 14 -275 20 -325 23 -191 23 -238 1 -301
-56 -161 -94 -214 -154 -214 -45 0 -50 10 -69 115 -13 76 4 232 48 440 54 252
49 268 -112 324 -79 28 -121 27 -139 -1 -20 -33 -43 -177 -61 -378 -33 -378
-96 -611 -179 -665 -39 -26 -68 -16 -91 30 -19 37 -20 59 -19 290 1 180 6 273
17 330 25 127 30 216 15 245 -19 35 -89 69 -166 80 -86 12 -98 4 -106 -62 -4
-29 -11 -82 -16 -118 -11 -79 -24 -361 -25 -525 0 -115 -1 -123 -33 -190 -49
-104 -101 -174 -145 -197 -35 -18 -41 -18 -62 -4 -58 38 -43 172 52 466 18 58
37 114 42 125 29 65 41 112 41 158 0 43 -4 57 -22 73 -35 30 -86 64 -96 64 -5
0 -23 7 -41 16 -51 25 -114 22 -161 -10 -41 -27 -160 -177 -160 -201 0 -7 -4
-15 -8 -17 -11 -4 -89 -167 -122 -252 -6 -16 -13 -26 -17 -23 -6 7 5 41 59
179 32 82 33 119 3 164 -17 27 -103 75 -173 98 -51 17 -53 17 -95 -4 -108 -56
-211 -206 -312 -454 -41 -103 -15 16 48 221 41 133 23 174 -102 229 -70 31
-117 29 -136 -6 -16 -30 -67 -229 -90 -355 -9 -49 -23 -118 -31 -152 -8 -34
-14 -78 -14 -97 0 -19 -7 -67 -15 -106 -9 -42 -18 -159 -22 -281 l-6 -209 24
-26 c40 -43 92 -64 158 -64 l60 0 7 38 c26 147 99 389 186 617 40 105 152 340
167 349 8 5 8 0 1 -19 -12 -33 -34 -135 -61 -285 -28 -154 -23 -357 9 -441 35
-88 100 -139 178 -139 41 0 80 34 89 77 16 75 61 235 101 358 51 154 61 180
123 315 56 123 111 224 111 206 0 -5 -6 -35 -14 -65 -66 -261 -82 -457 -51
-617 23 -119 68 -176 156 -195 57 -13 150 6 198 42 50 36 116 120 168 215 l41
77 10 -37 c13 -44 72 -127 110 -152 33 -23 163 -26 202 -5 81 44 162 145 213
265 l25 60 25 -55 c15 -30 45 -72 67 -94 l41 -40 82 1 c148 2 201 51 302 279
l17 40 23 -77 c33 -107 37 -113 102 -133 51 -16 62 -17 112 -4 l56 14 5 235
c9 354 56 633 143 838 13 33 14 30 21 -80 12 -209 42 -400 74 -478 39 -98 47
-116 52 -120 3 -3 16 -22 28 -42 64 -105 227 -104 325 2 61 66 75 97 122 273
l16 59 37 -54 c74 -105 179 -141 298 -102 129 43 223 243 224 473 l0 65 37
-45 c130 -156 236 -209 326 -163 82 42 123 130 146 315 6 47 11 100 11 117 l0
32 52 -40 c86 -69 124 -84 203 -84 54 0 80 5 113 23 46 25 122 107 122 132 0
8 4 19 9 25 6 5 19 51 30 101 23 102 27 240 11 338 -6 33 -15 92 -20 132 -5
40 -12 82 -15 95 -4 15 1 30 13 44 30 31 85 115 106 159 10 22 22 48 27 57 18
35 40 154 34 185 -7 36 -50 93 -70 93 -13 0 -35 -56 -35 -87 0 -44 -93 -252
-116 -260 -7 -2 -19 13 -28 34 -64 148 -170 266 -258 287 -83 20 -177 -35
-212 -122 -19 -48 -24 -53 -58 -58 -53 -9 -110 -66 -139 -139 -32 -81 -39
-272 -14 -378 30 -127 73 -255 116 -339 25 -50 25 -171 0 -278 -23 -94 -40
-126 -73 -132 -40 -7 -54 1 -83 49 -44 69 -55 102 -113 333 -71 283 -101 495
-109 777 -6 204 12 459 46 672 10 58 15 116 13 129 -3 13 -28 48 -56 76 -57
56 -129 90 -215 102 -49 6 -50 6 -70 -27z m1014 -920 c34 -38 67 -100 85 -161
8 -25 6 -29 -17 -34 -31 -8 -92 9 -126 37 -37 28 -70 106 -62 146 12 65 67 70
120 12z m-80 -302 c32 -18 57 -22 128 -22 80 0 88 -2 92 -20 2 -11 11 -53 21
-94 11 -48 17 -119 17 -205 1 -121 -1 -136 -24 -182 -43 -87 -102 -96 -170
-24 -41 43 -65 90 -106 210 -67 192 -93 302 -93 388 l0 71 47 -50 c26 -28 66
-61 88 -72z m-869 -462 c39 -42 61 -110 81 -255 37 -277 1 -515 -81 -536 -40
-10 -59 -1 -86 39 -79 116 -117 521 -65 686 32 103 91 129 151 66z m-3311
-1341 c-18 -35 -20 -20 -3 27 7 20 14 27 15 18 2 -8 -3 -28 -12 -45z"/>
<path d="M1195 3354 c-133 -32 -266 -89 -410 -174 -132 -79 -239 -190 -278
-288 -22 -55 -22 -159 0 -214 42 -107 146 -214 271 -279 81 -42 224 -58 342
-38 30 5 74 12 98 15 l42 7 -25 -54 c-82 -177 52 -369 257 -369 51 0 207 33
240 51 23 12 23 13 -12 -64 -34 -75 -38 -132 -14 -180 39 -76 142 -137 234
-137 90 1 247 49 395 123 33 16 58 27 55 23 -3 -3 -87 -88 -186 -188 -322
-325 -473 -532 -474 -649 0 -75 70 -184 143 -224 33 -17 37 -17 60 -2 13 8 33
33 43 54 11 21 28 52 38 68 11 17 30 48 44 70 139 221 310 432 532 653 124
123 168 162 188 162 41 0 152 -23 152 -31 0 -5 -8 -16 -18 -26 -30 -30 -106
-136 -123 -173 -45 -95 -49 -110 -49 -184 0 -65 5 -85 29 -134 82 -160 321
-276 500 -243 203 39 336 107 531 269 96 81 108 132 31 132 -30 0 -49 -8 -83
-36 -58 -49 -194 -136 -243 -156 -110 -44 -127 -48 -228 -48 -97 0 -105 2
-162 34 -41 22 -67 45 -82 72 -25 43 -24 67 8 140 l18 43 38 -11 c65 -18 260
-15 328 6 110 33 166 66 250 151 107 108 145 182 145 287 0 66 -3 79 -28 114
-16 21 -53 53 -83 69 -51 28 -60 30 -164 30 -121 0 -156 -9 -280 -72 -69 -36
-161 -98 -202 -138 -20 -19 -27 -20 -95 -12 -125 15 -124 13 -8 108 309 253
474 371 710 507 85 49 352 182 366 182 17 0 172 82 188 99 44 48 59 168 31
246 -8 22 -15 48 -15 58 0 10 -12 29 -26 44 -22 21 -31 24 -64 19 -35 -5 -142
-56 -237 -112 -97 -58 -179 -108 -183 -114 -3 -3 -23 -17 -45 -30 -22 -13 -42
-27 -45 -30 -3 -3 -23 -17 -45 -30 -22 -13 -42 -27 -45 -30 -3 -3 -23 -17 -45
-30 -22 -13 -46 -30 -53 -37 -8 -7 -23 -18 -35 -25 -23 -11 -308 -226 -317
-238 -3 -4 -43 -38 -90 -75 -47 -37 -87 -71 -90 -75 -3 -4 -48 -43 -101 -87
-53 -44 -116 -99 -140 -122 -24 -24 -59 -54 -76 -68 l-32 -25 -43 36 c-23 20
-45 36 -49 36 -4 0 -16 -18 -26 -39 -13 -28 -33 -48 -71 -70 -30 -17 -60 -31
-67 -31 -8 0 -16 -4 -19 -9 -7 -10 -128 -48 -176 -54 -52 -7 -89 3 -106 28
-32 49 32 127 194 236 57 38 105 69 107 69 2 0 32 17 66 39 35 21 90 50 122
66 73 34 137 93 137 126 0 66 -70 224 -103 235 -21 7 -67 -10 -116 -43 -19
-13 -37 -23 -42 -23 -4 0 -5 24 -2 53 9 87 -47 166 -152 217 -181 87 -485 2
-755 -210 -63 -49 -75 -55 -170 -80 -124 -34 -294 -34 -369 -1 -125 53 -173
107 -173 189 0 106 110 202 338 297 145 60 156 64 237 80 111 22 165 9 186
-46 9 -26 -7 -80 -28 -93 -23 -14 -10 -33 30 -45 41 -12 42 -12 81 26 54 52
88 114 95 171 21 185 -242 319 -502 256z m978 -785 c38 -17 50 -53 32 -95 -50
-120 -386 -333 -593 -375 -48 -10 -63 -9 -94 4 -100 42 -37 152 161 284 218
145 416 218 494 182z m1479 -806 c26 -23 23 -43 -17 -99 -80 -112 -227 -184
-374 -184 -42 0 -82 4 -88 8 -23 14 148 164 262 231 100 59 182 75 217 44z"/>
<path d="M7332 2443 c-51 -25 -144 -146 -290 -378 -14 -22 -33 -52 -44 -67
-10 -15 -18 -30 -18 -32 0 -3 -18 -36 -41 -72 -22 -37 -45 -77 -50 -88 -5 -12
-21 -41 -35 -66 -82 -143 -209 -404 -276 -564 -16 -39 -33 -80 -38 -91 -30
-67 -80 -235 -109 -368 -18 -79 -25 -95 -75 -157 -60 -74 -164 -162 -233 -198
-107 -55 -223 -63 -304 -22 -57 30 -69 53 -69 137 l0 73 33 0 c106 1 270 63
374 141 155 116 254 376 197 515 -37 91 -99 125 -223 125 -72 0 -99 -5 -143
-24 -172 -76 -303 -216 -426 -457 -22 -41 -47 -97 -57 -123 -30 -80 -209 -226
-277 -227 -26 0 -68 30 -68 49 0 64 84 266 160 386 11 17 27 44 36 60 154 280
530 708 851 968 168 137 173 143 173 223 0 72 -18 125 -67 201 -40 61 -52 67
-106 52 -79 -21 -574 -551 -777 -832 -96 -133 -113 -156 -144 -203 -41 -61
-56 -73 -56 -44 0 12 -21 42 -48 68 -36 37 -60 52 -108 65 -33 9 -74 17 -90
17 -32 0 -123 -23 -164 -42 -42 -20 -144 -81 -155 -94 -5 -6 -27 -24 -48 -39
-81 -60 -219 -246 -291 -391 -101 -206 -99 -336 7 -436 27 -27 55 -48 62 -48
7 0 26 -7 41 -15 91 -47 288 38 449 195 l50 48 0 -127 c0 -181 25 -232 129
-267 47 -16 53 -16 105 2 52 17 119 50 131 64 3 3 38 32 78 63 l72 58 0 -34
c0 -19 11 -59 24 -88 56 -127 175 -197 383 -224 50 -6 182 19 227 43 84 46
188 124 254 191 l72 74 0 -39 c0 -54 32 -162 63 -211 35 -55 84 -77 157 -70
69 6 101 21 169 83 79 71 218 264 295 409 32 61 33 78 2 94 -31 17 -79 -7
-101 -50 -9 -16 -38 -62 -65 -102 -116 -171 -196 -231 -261 -197 -16 9 -19 22
-19 84 0 40 6 92 14 117 7 24 21 69 29 99 25 84 54 169 77 230 12 30 24 64 28
75 3 11 11 31 19 45 7 14 13 28 13 33 0 10 151 312 178 357 12 19 25 42 29 50
9 19 214 323 222 330 4 3 24 30 46 60 22 30 42 57 45 60 11 9 165 194 183 220
29 42 22 112 -19 191 -35 67 -111 149 -136 149 -7 0 -28 -8 -46 -17z m-2233
-1209 c25 -32 26 -50 5 -106 -25 -67 -53 -117 -112 -198 -72 -98 -256 -281
-309 -309 -42 -21 -107 -28 -130 -13 -84 53 57 309 297 540 109 105 207 139
249 86z m1119 -146 c18 -18 14 -80 -8 -129 -59 -131 -210 -246 -348 -264 l-54
-7 16 29 c8 17 43 72 77 124 119 180 268 296 317 247z"/>
<path d="M3726 2388 c-19 -22 -19 -23 35 -125 61 -117 63 -121 104 -183 47
-74 66 -90 99 -90 39 0 85 28 142 86 40 41 44 51 44 94 0 43 -5 52 -47 98 -52
55 -120 91 -235 123 -88 25 -119 24 -142 -3z"/>
</g>
</svg>
