<?xml version="1.0" standalone="no"?>
<!DOCTYPE svg PUBLIC "-//W3C//DTD SVG 20010904//EN"
 "http://www.w3.org/TR/2001/REC-SVG-20010904/DTD/svg10.dtd">
<svg version="1.0" xmlns="http://www.w3.org/2000/svg"
 width="639.000000pt" height="402.000000pt" viewBox="0 0 639.000000 402.000000"
 preserveAspectRatio="xMidYMid meet">
<metadata>
Created by potrace 1.16, written by Peter Selinger 2001-2019
</metadata>
<g transform="translate(0.000000,402.000000) scale(0.100000,-0.100000)"
fill="#000000" stroke="none">
<path d="M3005 3819 c-99 -22 -774 -166 -1500 -320 -726 -154 -1328 -282
-1338 -285 -16 -5 -17 -67 -15 -1157 l3 -1151 1500 -323 c825 -178 1523 -326
1550 -329 41 -4 318 53 1525 314 l1475 318 3 1161 c2 1100 1 1162 -15 1167
-10 3 -151 34 -313 70 -336 73 -951 208 -1939 426 -377 82 -701 150 -720 149
-20 -1 -117 -19 -216 -40z m2200 -492 l110 -23 3 -92 c2 -70 0 -92 -10 -92 -7
0 -65 9 -128 20 -63 11 -118 20 -122 20 -5 0 -8 43 -8 95 0 112 -13 106 155
72z m-1955 -1092 l235 0 3 553 c1 303 4 552 7 552 4 0 189 -34 273 -51 l52
-10 0 -1227 c0 -675 -4 -1232 -8 -1239 -6 -10 -249 -53 -301 -53 l-21 0 0 580
0 580 -240 0 -240 0 0 -580 0 -580 -22 0 c-26 0 -300 38 -304 42 -1 2 -6 559
-10 1239 l-7 1235 169 30 169 30 5 -551 5 -550 235 0z m2443 993 l107 -22 0
-88 c0 -48 -1 -88 -3 -88 -2 0 -52 9 -112 20 -60 11 -110 20 -112 20 -2 0 -3
41 -3 90 0 50 3 90 8 90 4 0 55 -10 115 -22z m-1393 -48 c420 -70 504 -109
559 -255 52 -139 56 -590 6 -710 -24 -55 -83 -113 -149 -148 l-61 -31 38 -8
c47 -10 107 -40 129 -65 10 -10 27 -41 40 -68 21 -46 22 -66 25 -280 2 -126 4
-316 6 -421 l2 -192 -105 -16 c-58 -9 -110 -16 -117 -16 -34 0 -38 41 -43 430
-5 351 -7 388 -24 423 -10 21 -31 44 -47 52 -32 17 -184 31 -223 21 l-26 -6 0
-510 0 -509 -32 -6 c-105 -19 -268 -41 -273 -37 -3 3 -5 545 -5 1204 l0 1199
33 -6 c17 -3 138 -23 267 -45z m-2220 -5 c0 -3 110 -532 245 -1177 135 -644
243 -1173 241 -1176 -3 -2 -75 4 -161 14 -140 16 -158 20 -166 38 -5 12 -29
138 -54 281 -25 143 -49 269 -54 281 -8 19 -20 22 -133 28 -67 3 -171 9 -229
13 l-106 6 -43 -269 c-24 -148 -44 -271 -46 -273 -5 -6 -255 22 -259 29 -5 8
410 2148 418 2157 9 8 264 50 315 52 17 1 32 -1 32 -4z m3230 -941 c0 -496 4
-811 10 -845 14 -74 37 -94 104 -93 62 0 97 19 123 67 17 30 18 88 21 825 1
435 7 792 11 792 10 0 162 -27 200 -36 l24 -5 -7 -756 c-7 -699 -9 -762 -27
-831 -50 -197 -183 -295 -399 -296 -132 -1 -208 43 -265 154 -50 97 -49 79
-52 965 -1 457 1 844 3 861 l6 30 124 -20 124 -20 0 -792z m-4208 760 c42 -22
85 -81 102 -145 25 -87 37 -313 26 -465 -17 -222 -51 -304 -145 -338 -18 -7
-17 -9 11 -21 47 -19 100 -71 117 -113 50 -124 57 -566 12 -718 -22 -75 -62
-129 -118 -160 -42 -22 -62 -27 -126 -27 -64 1 -437 52 -493 69 -17 5 -18 58
-18 935 0 511 3 929 8 929 4 0 115 16 247 34 340 49 321 48 377 20z"/>
<path d="M4314 2906 c-2 -6 -3 -175 -2 -376 l3 -365 111 0 c158 1 180 19 204
168 9 53 11 137 8 260 -7 219 -15 248 -80 276 -58 25 -238 52 -244 37z"/>
<path d="M1880 2817 c0 -4 -38 -241 -85 -527 -47 -286 -85 -529 -85 -540 0
-19 7 -20 185 -20 154 0 185 2 185 14 0 26 -189 1068 -194 1074 -3 3 -6 2 -6
-1z"/>
<path d="M770 2751 l-45 -6 0 -97 c0 -54 1 -186 3 -293 l2 -195 68 0 c92 0
136 14 153 48 9 19 14 81 17 214 6 326 -11 354 -198 329z"/>
<path d="M733 1683 c4 -126 7 -271 7 -324 l0 -96 89 -7 c59 -5 97 -4 110 3 38
21 51 97 51 301 0 207 -11 294 -43 328 -19 20 -30 22 -120 22 l-100 0 6 -227z"/>
</g>
</svg>
