<?xml version="1.0" standalone="no"?>
<!DOCTYPE svg PUBLIC "-//W3C//DTD SVG 20010904//EN"
 "http://www.w3.org/TR/2001/REC-SVG-20010904/DTD/svg10.dtd">
<svg version="1.0" xmlns="http://www.w3.org/2000/svg"
 width="300.000000pt" height="300.000000pt" viewBox="0 0 300.000000 300.000000"
 preserveAspectRatio="xMidYMid meet">

<g transform="translate(0.000000,300.000000) scale(0.100000,-0.100000)"
fill="#000000" stroke="none">
<path d="M1370 2783 c-28 -10 -49 -35 -55 -64 -5 -23 -16 -34 -46 -46 -55 -22
-79 -55 -79 -113 0 -56 6 -64 34 -45 24 17 64 19 100 5 21 -8 26 -16 26 -44 0
-80 -58 -190 -105 -202 -31 -8 -31 -17 -2 -37 21 -14 21 -15 -25 -22 -62 -9
-94 -3 -263 50 -147 46 -185 70 -185 114 0 35 55 81 96 81 36 0 39 -4 61 -75
4 -16 15 -30 23 -30 12 0 15 17 15 86 0 78 -3 90 -30 134 -42 67 -104 99 -194
99 -55 0 -96 -10 -251 -63 -150 -52 -197 -64 -252 -65 -58 -1 -68 -4 -68 -19
0 -39 29 -75 72 -90 l43 -15 -30 -12 c-16 -6 -42 -10 -57 -7 -37 5 -36 -16 1
-54 22 -22 39 -29 67 -29 l38 0 -30 -32 c-17 -18 -42 -51 -57 -74 -27 -40 -62
-64 -92 -64 -30 0 -6 -44 35 -65 46 -24 107 -19 178 15 l62 29 -14 -27 c-21
-41 -59 -78 -120 -117 -31 -20 -56 -39 -56 -44 0 -18 27 -30 73 -33 l47 -3
-23 -35 c-24 -35 -51 -101 -61 -152 -9 -39 15 -37 49 4 l27 31 -7 -39 c-12
-62 -45 -132 -77 -159 l-29 -24 26 -17 c25 -17 93 -16 138 1 30 12 20 -30 -28
-123 -26 -50 -47 -107 -51 -134 -3 -31 -15 -59 -32 -79 -25 -30 -25 -32 -7
-45 24 -18 79 -18 136 -1 l45 14 -4 -60 -5 -61 28 22 c15 12 34 22 41 22 7 0
29 13 47 30 41 36 53 37 61 7 17 -62 -7 -182 -49 -245 -13 -20 -28 -52 -31
-71 l-7 -34 64 5 c35 2 82 13 104 23 23 11 96 77 172 155 128 131 132 134 123
95 -15 -62 -14 -66 16 -55 44 17 45 11 9 -36 -19 -25 -53 -76 -74 -112 -22
-37 -60 -96 -85 -131 -45 -63 -59 -112 -36 -126 12 -7 51 19 128 83 28 24 52
41 52 37 0 -19 -40 -77 -88 -130 -58 -62 -92 -123 -92 -165 0 -53 12 -52 115
15 103 67 195 119 200 113 1 -2 -2 -37 -7 -79 -11 -87 1 -132 39 -137 24 -3
51 29 83 100 l19 43 -2 -70 c-2 -68 -1 -70 24 -73 19 -2 39 9 76 42 49 44 63
48 63 18 0 -20 71 -162 81 -162 10 0 79 142 79 162 0 30 14 27 56 -12 48 -45
91 -60 105 -39 5 8 7 41 4 74 l-5 60 26 -55 c44 -94 78 -114 110 -65 13 20 15
39 9 111 l-8 86 41 -21 c22 -11 88 -52 148 -91 113 -73 124 -75 124 -17 0 41
-32 98 -93 164 -30 32 -64 78 -77 102 l-22 44 59 -50 c69 -59 117 -93 132 -93
6 0 11 15 11 33 0 24 -15 55 -55 113 -31 43 -70 104 -87 134 -17 30 -47 74
-65 98 -35 43 -33 49 11 32 30 -11 31 -7 16 55 -9 39 -5 36 123 -95 75 -77
150 -144 172 -155 22 -10 69 -21 104 -23 l64 -5 -7 34 c-3 19 -18 51 -31 71
-42 63 -66 183 -49 245 8 29 25 29 50 2 10 -12 38 -30 60 -39 23 -10 45 -23
48 -29 4 -6 12 -11 18 -11 10 0 4 73 -9 106 -4 10 5 10 43 -2 60 -18 115 -18
139 0 18 13 18 15 -7 45 -17 20 -29 48 -33 79 -3 26 -25 86 -50 137 -49 97
-57 132 -27 120 44 -17 112 -18 137 -1 l26 17 -29 24 c-32 27 -66 99 -75 158
l-6 38 29 -31 c52 -56 59 -34 23 70 -9 25 -27 61 -40 80 l-23 35 47 3 c46 3
73 15 73 33 0 5 -19 21 -42 35 -54 33 -116 91 -134 126 l-14 27 62 -29 c79
-38 141 -40 189 -7 36 24 51 57 25 57 -31 0 -67 24 -89 59 -12 20 -37 53 -55
74 l-34 37 30 0 c43 0 78 18 91 47 16 35 14 40 -16 36 -16 -3 -41 1 -58 7
l-30 12 43 15 c43 15 72 51 72 90 0 15 -10 18 -69 19 -56 1 -101 13 -252 65
-154 53 -195 63 -249 63 -151 0 -234 -94 -232 -263 0 -24 5 -48 11 -54 15 -15
41 10 41 40 0 43 18 63 54 63 41 0 96 -47 96 -81 0 -44 -38 -68 -185 -114
-169 -53 -201 -59 -262 -50 l-47 7 24 18 25 19 -27 20 c-34 28 -55 86 -68 191
-5 47 -13 100 -16 118 -5 26 -3 32 12 32 16 0 15 2 -4 23 -28 30 -28 51 0 64
19 8 15 12 -38 30 -137 49 -225 64 -274 46z m-182 -839 l2 -129 -50 -57 c-32
-36 -61 -59 -80 -63 l-30 -7 0 -131 0 -132 -38 -25 c-20 -14 -40 -26 -44 -28
-5 -2 -8 66 -8 152 0 132 -2 156 -15 156 -8 0 -15 2 -15 4 0 2 7 20 15 39 10
25 15 72 15 150 l0 114 -27 -4 -28 -4 30 25 c17 14 49 40 72 56 33 24 42 27
45 15 2 -13 9 -12 36 9 34 24 34 24 75 7 l42 -18 3 -129z m562 -17 c-73 -65
-140 -117 -153 -117 -8 0 -34 9 -58 20 -39 17 -46 17 -66 5 -32 -21 -35 -19
-19 13 22 43 55 54 108 34 l45 -16 74 36 c84 41 89 43 69 25z m303 -67 l37
-14 0 -147 c0 -160 1 -159 -61 -159 l-29 0 0 123 0 123 -30 11 -30 11 0 -138
c0 -134 -1 -138 -22 -144 -13 -3 -33 -6 -45 -6 -23 0 -23 1 -23 165 0 133 3
165 14 165 7 0 27 3 44 6 24 5 31 2 34 -12 3 -15 7 -14 33 9 17 14 32 25 35
24 3 -1 22 -9 43 -17z m-265 -31 l42 -12 0 -121 0 -121 -60 -48 -59 -47 -53
18 -53 18 -3 121 -3 121 57 46 c33 27 63 45 73 42 9 -3 35 -10 59 -17z m-254
-34 l36 -15 0 -149 0 -148 -31 -7 c-61 -12 -59 -16 -59 117 0 122 0 124 -25
135 l-25 12 0 -140 c0 -112 -3 -140 -14 -140 -7 0 -28 -3 -45 -6 l-31 -6 0
165 c0 180 -1 177 61 177 16 0 29 -5 29 -11 0 -6 12 -1 28 10 33 25 31 25 76
6z m-269 -27 l45 -12 0 -86 0 -85 -50 -30 c-28 -16 -50 -33 -50 -37 0 -4 19
-13 41 -20 l42 -12 -37 -32 -37 -32 -57 18 -57 18 -3 103 -2 104 47 58 c25 31
52 57 60 57 7 0 33 -5 58 -12z m625 -402 c0 -73 4 -127 10 -131 6 -4 10 21 10
69 l0 74 40 32 c37 30 41 30 80 19 l40 -12 0 -77 c0 -42 4 -80 10 -86 16 -16
-17 -56 -38 -45 -12 6 -23 5 -36 -4 -15 -11 -24 -11 -56 0 -36 13 -39 12 -53
-8 -12 -19 -16 -20 -46 -8 -28 12 -34 12 -51 -4 -17 -15 -24 -16 -46 -6 -22
10 -30 9 -45 -5 -14 -13 -24 -14 -47 -6 -25 8 -33 7 -49 -10 -17 -16 -23 -17
-46 -7 -27 12 -27 13 -27 116 0 82 3 103 14 103 8 0 21 3 30 6 14 5 16 -6 16
-85 0 -50 2 -91 4 -91 2 0 11 -3 20 -6 14 -5 16 6 16 90 0 53 3 96 8 96 4 0
17 3 29 6 22 6 22 3 25 -82 2 -59 7 -89 16 -92 9 -3 12 19 12 87 0 50 3 91 8
91 4 0 17 3 29 6 22 6 22 3 25 -82 2 -59 7 -89 16 -92 9 -3 12 27 12 126 0
142 -3 134 58 141 9 1 12 -30 12 -123z m-111 91 c8 -10 7 -19 -4 -33 -13 -18
-15 -18 -31 -2 -14 14 -15 20 -4 32 15 19 24 20 39 3z m-521 -88 c-29 -26 -54
-46 -56 -44 -10 9 31 76 64 104 38 31 39 31 42 10 3 -17 -10 -35 -50 -70z
m238 -15 c24 -6 24 -8 24 -128 -1 -149 -7 -160 -96 -171 l-58 -8 15 24 c10 15
28 25 48 27 26 3 31 7 31 29 0 25 -1 25 -18 10 -16 -14 -23 -15 -51 -4 -29 11
-34 10 -46 -6 -9 -13 -20 -17 -35 -12 -11 4 -27 1 -35 -5 -11 -9 -23 -9 -50 0
l-35 12 0 82 0 83 38 30 c34 28 40 29 72 18 l35 -12 3 -74 c4 -101 22 -115 23
-18 l0 74 41 33 c23 18 48 30 56 27 7 -3 25 -8 38 -11z m-343 -146 c17 -10 -7
-32 -27 -25 -21 8 -23 143 -3 150 8 3 13 -14 15 -57 2 -33 8 -64 15 -68z
m-133 28 c0 -50 -26 -82 -59 -71 -17 5 -21 15 -21 50 0 24 5 47 11 51 8 4 7 9
-2 15 -12 8 -12 11 0 18 10 6 24 5 43 -5 24 -13 28 -20 28 -58z m80 20 c0 -23
-6 -36 -17 -40 -15 -6 -15 -8 -3 -16 21 -13 0 -31 -28 -24 -18 5 -22 13 -22
48 0 47 13 66 47 66 19 0 23 -5 23 -34z"/>
<path d="M1030 1905 c0 -69 3 -125 8 -125 4 0 17 3 30 6 21 6 22 11 22 114 0
105 0 107 -25 118 -14 7 -28 12 -30 12 -3 0 -5 -56 -5 -125z"/>
<path d="M1690 1670 c0 -55 4 -100 9 -100 5 0 16 -3 25 -6 14 -5 16 7 16 94 0
101 -4 112 -41 112 -5 0 -9 -45 -9 -100z"/>
<path d="M1180 1626 c0 -36 4 -66 9 -66 32 0 41 14 41 66 0 30 -4 54 -9 54 -5
0 -16 3 -25 6 -14 5 -16 -4 -16 -60z"/>
<path d="M1972 1322 c2 -54 6 -67 21 -70 15 -3 17 5 17 61 0 57 -3 65 -20 70
-20 5 -21 2 -18 -61z"/>
<path d="M1422 1252 c2 -54 6 -67 21 -70 15 -3 17 5 17 61 0 57 -3 65 -20 70
-20 5 -21 2 -18 -61z"/>
<path d="M1240 1231 c0 -51 3 -62 20 -71 20 -11 21 -9 18 57 -2 55 -6 68 -20
71 -16 3 -18 -5 -18 -57z"/>
<path d="M970 1231 c0 -23 5 -41 10 -41 6 0 10 15 10 34 0 19 -4 38 -10 41 -6
4 -10 -10 -10 -34z"/>
<path d="M1062 1240 c0 -14 2 -19 5 -12 2 6 2 18 0 25 -3 6 -5 1 -5 -13z"/>
</g>
</svg>
